<svg version="1.1" xmlns="http://www.w3.org/2000/svg" viewBox="0 0 1399 409" width="1399" height="409" filter="invert(93%) hue-rotate(180deg)">
  <!-- svg-source:excalidraw -->
  
  <defs>
    <style class="style-fonts">
      @font-face {
        font-family: "Virgil";
        src: url("https://excalidraw.com/Virgil.woff2");
      }
      @font-face {
        font-family: "Cascadia";
        src: url("https://excalidraw.com/Cascadia.woff2");
      }
      @font-face {
        font-family: "Assistant";
        src: url("https://excalidraw.com/Assistant-Regular.woff2");
      }
    </style>
    
  </defs>
  <rect x="0" y="0" width="1399" height="409" fill="#ffffff"></rect><g stroke-linecap="round" transform="translate(10 48) rotate(0 58.5 23)"><path d="M11.5 0 C37.41 -1.55, 66.32 -1.49, 105.5 0 M11.5 0 C42.04 -0.61, 74.41 0.5, 105.5 0 M105.5 0 C112.45 1.83, 117.84 3.55, 117 11.5 M105.5 0 C112.74 0.51, 118.32 5.05, 117 11.5 M117 11.5 C115.65 16.29, 114.98 23.56, 117 34.5 M117 11.5 C116.35 15.37, 117.88 21.32, 117 34.5 M117 34.5 C116.91 42.78, 114.05 47.19, 105.5 46 M117 34.5 C115.88 43.68, 114.04 44.16, 105.5 46 M105.5 46 C87.35 45.64, 65.94 45.58, 11.5 46 M105.5 46 C85.47 46.46, 67.58 44.94, 11.5 46 M11.5 46 C4.41 45.57, -0.46 43.03, 0 34.5 M11.5 46 C2.09 44.43, 0.12 42.52, 0 34.5 M0 34.5 C-1.95 25.55, -2.06 21.42, 0 11.5 M0 34.5 C-0.37 26.02, 0.44 17.49, 0 11.5 M0 11.5 C-0.66 2.17, 2.73 -0.64, 11.5 0 M0 11.5 C-1.62 2.14, 2.32 1.15, 11.5 0" stroke="#1e1e1e" stroke-width="2" fill="none"></path></g><g transform="translate(26 57) rotate(0 37.81995391845703 12.5)"><text x="0" y="0" font-family="Virgil, Segoe UI Emoji" font-size="20px" fill="#1e1e1e" text-anchor="start" style="white-space: pre;" direction="ltr" dominant-baseline="text-before-edge">register</text></g><g stroke-linecap="round"><g transform="translate(134 64.43850364536667) rotate(0 82.5 -2.1779063713548936)"><path d="M0.66 -0.31 C28.44 -1.33, 138.32 -4.32, 165.71 -5.17 M-0.45 -1.52 C27.32 -2.49, 137.68 -3.54, 165.13 -4.05" stroke="#1e1e1e" stroke-width="2" fill="none"></path></g><g transform="translate(134 64.43850364536667) rotate(0 82.5 -2.1779063713548936)"><path d="M141.76 4.82 C146.29 3.92, 150.58 0.8, 165.13 -4.05 M141.76 4.82 C146.33 2.8, 152.36 1.28, 165.13 -4.05" stroke="#1e1e1e" stroke-width="2" fill="none"></path></g><g transform="translate(134 64.43850364536667) rotate(0 82.5 -2.1779063713548936)"><path d="M141.52 -12.28 C146.24 -9.43, 150.58 -8.81, 165.13 -4.05 M141.52 -12.28 C146.01 -10.66, 152.09 -8.52, 165.13 -4.05" stroke="#1e1e1e" stroke-width="2" fill="none"></path></g></g><mask></mask><g stroke-linecap="round" transform="translate(318 19) rotate(0 113 45)"><path d="M22.5 0 C73.97 0.57, 122.88 -0.13, 203.5 0 M22.5 0 C70.95 -0.34, 117.08 -0.34, 203.5 0 M203.5 0 C217.89 -1.85, 225.72 5.6, 226 22.5 M203.5 0 C216.5 1.26, 227.31 9.3, 226 22.5 M226 22.5 C226.82 31.24, 227.01 40.54, 226 67.5 M226 22.5 C225.27 39.18, 225.84 55.73, 226 67.5 M226 67.5 C225.57 84.39, 218.99 88.43, 203.5 90 M226 67.5 C224.18 84.64, 218.99 88.79, 203.5 90 M203.5 90 C158.48 91.45, 112.4 91.84, 22.5 90 M203.5 90 C138.6 89.74, 73.22 87.95, 22.5 90 M22.5 90 C6.19 88.61, -1.62 82.65, 0 67.5 M22.5 90 C8.39 90.71, 1.38 83.44, 0 67.5 M0 67.5 C0.39 51.51, -1.44 38.92, 0 22.5 M0 67.5 C-0.69 50.28, 0.02 32.35, 0 22.5 M0 22.5 C-1.33 5.56, 6.86 1.98, 22.5 0 M0 22.5 C2.06 9.38, 6.18 -0.53, 22.5 0" stroke="#1e1e1e" stroke-width="2" fill="none"></path></g><g transform="translate(339 30) rotate(0 55.029945373535156 12.5)"><text x="0" y="0" font-family="Virgil, Segoe UI Emoji" font-size="20px" fill="#1e1e1e" text-anchor="start" style="white-space: pre;" direction="ltr" dominant-baseline="text-before-edge">verify email</text></g><g transform="translate(340 68) rotate(0 82.58993530273438 12.5)"><text x="0" y="0" font-family="Virgil, Segoe UI Emoji" font-size="20px" fill="#1e1e1e" text-anchor="start" style="white-space: pre;" direction="ltr" dominant-baseline="text-before-edge">click link on email</text></g><g stroke-linecap="round"><g transform="translate(549 61) rotate(0 64 -1.5)"><path d="M0.64 0.86 C22.16 0.07, 106.79 -3.22, 128.12 -3.97 M-0.48 0.27 C20.98 -0.47, 105.8 -2.45, 127.23 -2.94" stroke="#1e1e1e" stroke-width="2" fill="none"></path></g><g transform="translate(549 61) rotate(0 64 -1.5)"><path d="M103.95 6.15 C110.42 4.23, 112.47 3.01, 127.23 -2.94 M103.95 6.15 C109.88 4.13, 114.93 1.99, 127.23 -2.94" stroke="#1e1e1e" stroke-width="2" fill="none"></path></g><g transform="translate(549 61) rotate(0 64 -1.5)"><path d="M103.55 -10.94 C110.22 -9.12, 112.35 -6.6, 127.23 -2.94 M103.55 -10.94 C109.54 -8.77, 114.69 -6.69, 127.23 -2.94" stroke="#1e1e1e" stroke-width="2" fill="none"></path></g></g><mask></mask><g stroke-linecap="round" transform="translate(673 10) rotate(0 137.5 49.5)"><path d="M172.5 12.5 C190.93 20.62, 210.95 28.54, 240.5 37.5 M172.5 12.5 C191.58 19.59, 210.69 27.07, 240.5 37.5 M240.5 37.5 C273.45 51.13, 275.62 49.53, 240.5 62.5 M240.5 37.5 C276.06 50.78, 273.62 51.48, 240.5 62.5 M240.5 62.5 C211.77 73.98, 186.79 83.32, 172.5 86.5 M240.5 62.5 C224.68 67.21, 209.75 73.19, 172.5 86.5 M172.5 86.5 C139.72 98.73, 139.51 99.98, 103.5 86.5 M172.5 86.5 C136.03 100.99, 137.78 100.78, 103.5 86.5 M103.5 86.5 C86.49 80.16, 67.28 72.78, 34.5 62.5 M103.5 86.5 C77.61 78.27, 53.66 69.83, 34.5 62.5 M34.5 62.5 C-1.67 50.6, 1.14 50.79, 34.5 37.5 M34.5 62.5 C-0.02 49.34, 0.75 50.31, 34.5 37.5 M34.5 37.5 C59.81 27.14, 84.88 19.8, 103.5 12.5 M34.5 37.5 C59.11 29.63, 83.4 20.55, 103.5 12.5 M103.5 12.5 C138.99 -1.28, 139.22 0.42, 172.5 12.5 M103.5 12.5 C139.47 -2.12, 138.78 -0.91, 172.5 12.5" stroke="#1e1e1e" stroke-width="2" fill="none"></path></g><g transform="translate(769 47) rotate(0 47.13995361328125 12.5)"><text x="0" y="0" font-family="Virgil, Segoe UI Emoji" font-size="20px" fill="#1e1e1e" text-anchor="start" style="white-space: pre;" direction="ltr" dominant-baseline="text-before-edge">success ?</text></g><g transform="translate(406 354) rotate(0 10.209991455078125 12.5)"><text x="0" y="0" font-family="Virgil, Segoe UI Emoji" font-size="20px" fill="#1e1e1e" text-anchor="start" style="white-space: pre;" direction="ltr" dominant-baseline="text-before-edge">no</text></g><g stroke-linecap="round"><g transform="translate(382.93236489014384 353.4598144666031) rotate(0 -155.73178465642513 -126.72990723330156)"><path d="M0.79 -0.65 C-51.21 -42.95, -259.77 -211.51, -311.73 -253.68 M-0.25 1.62 C-52.46 -40.51, -260.95 -209.91, -312.81 -252.26" stroke="#1e1e1e" stroke-width="2" fill="none"></path></g><g transform="translate(382.93236489014384 353.4598144666031) rotate(0 -155.73178465642513 -126.72990723330156)"><path d="M-289.2 -244.05 C-297.92 -246.98, -304.82 -248.3, -312.81 -252.26 M-289.2 -244.05 C-295.26 -247.18, -302.3 -248.28, -312.81 -252.26" stroke="#1e1e1e" stroke-width="2" fill="none"></path></g><g transform="translate(382.93236489014384 353.4598144666031) rotate(0 -155.73178465642513 -126.72990723330156)"><path d="M-299.99 -230.79 C-305.24 -238.07, -308.66 -243.67, -312.81 -252.26 M-299.99 -230.79 C-302.93 -237.67, -306.92 -242.51, -312.81 -252.26" stroke="#1e1e1e" stroke-width="2" fill="none"></path></g></g><mask></mask><g transform="translate(254 228) rotate(37.98221809588873 38.08995819091797 12.5)"><text x="0" y="0" font-family="Virgil, Segoe UI Emoji" font-size="20px" fill="#1e1e1e" text-anchor="start" style="white-space: pre;" direction="ltr" dominant-baseline="text-before-edge">redirect</text></g><g stroke-linecap="round" transform="translate(384 339) rotate(0 40.5 30)"><path d="M42.31 0.16 C49.85 0, 60.82 3.63, 67.11 7.25 C73.4 10.86, 78.11 16.4, 80.03 21.86 C81.94 27.31, 81.52 34.31, 78.62 39.98 C75.72 45.65, 69.5 52.43, 62.61 55.88 C55.72 59.34, 45.09 61.11, 37.28 60.71 C29.46 60.3, 21.77 57.31, 15.7 53.47 C9.64 49.63, 3.01 43.39, 0.86 37.67 C-1.29 31.96, -0.1 24.82, 2.8 19.19 C5.7 13.55, 11.2 7.09, 18.27 3.89 C25.33 0.69, 40.54 0.41, 45.19 -0.01 C49.84 -0.42, 46.33 0.86, 46.15 1.41 M26.06 2.78 C32.65 0.49, 42.17 0.47, 50.07 2.06 C57.98 3.66, 68.42 7.78, 73.46 12.35 C78.5 16.91, 80.4 23.92, 80.3 29.44 C80.21 34.96, 77.13 40.66, 72.89 45.46 C68.66 50.26, 62.26 56.09, 54.89 58.24 C47.53 60.39, 36.61 59.78, 28.71 58.34 C20.82 56.9, 12.15 54.21, 7.53 49.61 C2.9 45.01, 1.23 36.9, 0.97 30.74 C0.72 24.57, 2 17.2, 5.98 12.62 C9.95 8.03, 21.44 5.11, 24.82 3.23 C28.19 1.35, 25.58 1.12, 26.23 1.34" stroke="#1e1e1e" stroke-width="2" fill="none"></path></g><g stroke-linecap="round"><g transform="translate(807 113) rotate(0 -172 117)"><path d="M0.04 0.41 C-57.34 39.24, -287.54 194.89, -344.96 233.89 M-1.4 -0.42 C-58.35 38.52, -285.4 196.59, -342.76 235.37" stroke="#e03131" stroke-width="2" fill="none"></path></g><g transform="translate(807 113) rotate(0 -172 117)"><path d="M-328.24 215.02 C-330.93 218.36, -335.31 224.05, -342.76 235.37 M-328.24 215.02 C-333.11 222.43, -336.85 228.98, -342.76 235.37" stroke="#e03131" stroke-width="2" fill="none"></path></g><g transform="translate(807 113) rotate(0 -172 117)"><path d="M-318.56 229.11 C-323.7 229.03, -330.43 231.31, -342.76 235.37 M-318.56 229.11 C-326.78 231.8, -333.76 233.64, -342.76 235.37" stroke="#e03131" stroke-width="2" fill="none"></path></g></g><mask></mask><g stroke-linecap="round"><g transform="translate(952 58) rotate(0 143.5 -1.5)"><path d="M0.76 0.79 C48.62 0.38, 239.66 -2.74, 287.19 -3.26 M-0.3 0.16 C47.42 0, 238.24 -1.11, 286.33 -1.86" stroke="#2f9e44" stroke-width="2" fill="none"></path></g><g transform="translate(952 58) rotate(0 143.5 -1.5)"><path d="M262.93 6.92 C271.36 4.43, 276.65 -0.33, 286.33 -1.86 M262.93 6.92 C271.04 2.76, 280.19 -0.35, 286.33 -1.86" stroke="#2f9e44" stroke-width="2" fill="none"></path></g><g transform="translate(952 58) rotate(0 143.5 -1.5)"><path d="M262.76 -10.18 C271.13 -7.52, 276.47 -7.12, 286.33 -1.86 M262.76 -10.18 C270.77 -8.29, 279.99 -5.35, 286.33 -1.86" stroke="#2f9e44" stroke-width="2" fill="none"></path></g></g><mask></mask><g transform="translate(1048 72) rotate(0 38.08995819091797 12.5)"><text x="0" y="0" font-family="Virgil, Segoe UI Emoji" font-size="20px" fill="#1e1e1e" text-anchor="start" style="white-space: pre;" direction="ltr" dominant-baseline="text-before-edge">redirect</text></g><g stroke-linecap="round" transform="translate(1262 31) rotate(0 63.5 26.5)"><path d="M13.25 0 C39.02 1.86, 60.03 -0.92, 113.75 0 M13.25 0 C44.62 -0.12, 76.01 0.05, 113.75 0 M113.75 0 C122.91 0.7, 125.45 4.81, 127 13.25 M113.75 0 C122.32 -2.05, 125.47 2.15, 127 13.25 M127 13.25 C126.28 23.83, 127.66 33.04, 127 39.75 M127 13.25 C126.42 20.46, 127.28 29.51, 127 39.75 M127 39.75 C128.76 47.05, 122.39 52.02, 113.75 53 M127 39.75 C124.82 48.41, 122.42 52.19, 113.75 53 M113.75 53 C75.55 52.85, 40.58 52.35, 13.25 53 M113.75 53 C91.65 51.94, 68.33 52.11, 13.25 53 M13.25 53 C2.66 54.73, 0.32 50.39, 0 39.75 M13.25 53 C5.83 52.88, 0.34 46.83, 0 39.75 M0 39.75 C0.24 30, 0.86 17.14, 0 13.25 M0 39.75 C-1.14 29.21, -0.25 20.57, 0 13.25 M0 13.25 C1.17 3.22, 4.73 -0.81, 13.25 0 M0 13.25 C0.93 3.78, 3.78 2.18, 13.25 0" stroke="#1e1e1e" stroke-width="2" fill="none"></path></g><g transform="translate(1288 45) rotate(0 25.03997802734375 12.5)"><text x="0" y="0" font-family="Virgil, Segoe UI Emoji" font-size="20px" fill="#1e1e1e" text-anchor="start" style="white-space: pre;" direction="ltr" dominant-baseline="text-before-edge">login </text></g></svg>